<?xml version="1.0" encoding="UTF-8" standalone="no"?>
<!-- Created with Inkscape (http://www.inkscape.org/) -->

<svg
   width="1000mm"
   height="1000mm"
   viewBox="0 0 1000 1000"
   version="1.1"
   id="svg1"
   xml:space="preserve"
   xmlns="http://www.w3.org/2000/svg"
   xmlns:svg="http://www.w3.org/2000/svg"><defs
     id="defs1"><clipPath
       clipPathUnits="userSpaceOnUse"
       id="clipPath1"><rect
         style="fill:#000000;fill-opacity:0.480001;stroke-width:0.271394"
         id="rect2"
         width="106.06851"
         height="106.06851"
         x="25.197914"
         y="76.25737" /></clipPath><clipPath
       clipPathUnits="userSpaceOnUse"
       id="clipPath3"><rect
         style="fill:#000000;fill-opacity:0.480001;stroke-width:0.3"
         id="rect4"
         width="64.254807"
         height="68.53846"
         x="86.387016"
         y="57.829327" /></clipPath></defs><g
     id="layer1"
     transform="translate(-5,-48.500001)"><g
       id="g7"><rect
         style="fill:#000000;fill-opacity:1;stroke-width:2.20176"
         id="rect5"
         width="1000"
         height="1000"
         x="5"
         y="48.5"
         ry="128.50961" /><g
         id="g6"
         transform="matrix(5,0,0,5,-20,-194)"><path
           style="fill:#ffffff"
           d="m 4.9736642,194.87086 0.028312,-4.32401 1.2417268,2.35067 c 1.2540498,2.37399 3.713039,4.503 6.481753,5.61194 1.161903,0.46537 0.441422,0.61352 -3.1358044,0.64479 l -4.6442986,0.0406 z m 135.6843958,3.6386 c 2.76872,-1.10894 5.22771,-3.23795 6.48176,-5.61194 l 1.24172,-2.35067 0.0283,4.32401 0.0283,4.324 -4.6443,-0.0406 c -3.57723,-0.0313 -4.29771,-0.17942 -3.13581,-0.64479 z M 31.850255,127.76875 V 87.73169 H 48.039783 64.22931 l 2.065327,8.16756 c 2.481831,9.81467 8.902845,34.68843 9.880575,38.27543 l 0.698442,2.56237 0.551387,-1.92178 c 0.303262,-1.05698 3.014376,-11.57872 6.024697,-23.38164 3.01032,-11.802926 5.623364,-21.964332 5.806763,-22.580902 0.306001,-1.028749 1.6478,-1.121038 16.298839,-1.121038 h 15.96538 l 0.16642,30.26802 0.16642,30.26801 3.61065,0.3203 3.61065,0.32029 -8.32281,8.96831 c -4.57755,4.93256 -8.53468,9.0491 -8.79361,9.14785 -0.25894,0.0987 -4.30021,-3.93698 -8.9806,-8.9683 l -8.509788,-9.14786 3.603415,-0.19211 3.603413,-0.19212 -0.0551,-20.62715 c -0.0363,-13.588 -0.25596,-19.97134 -0.64377,-18.70538 -0.48538,1.58446 -10.074544,38.80908 -13.94406,54.1301 l -1.051634,4.16386 -9.049262,0.17725 c -8.939871,0.17511 -9.054123,0.15963 -9.451269,-1.28118 -0.534667,-1.93973 -12.184875,-47.48221 -13.785288,-53.88885 -0.690611,-2.7646 -1.419961,-5.19084 -1.620779,-5.39166 -0.200817,-0.20082 -0.365123,13.37559 -0.365123,30.16981 v 30.53493 h -9.92919 -9.92919 z M 4.9736642,59.385453 l -0.028312,-4.324002 4.6442986,0.0406 c 3.5772272,0.03128 4.2977082,0.179423 3.1358052,0.644794 -2.7687148,1.108939 -5.227704,3.237947 -6.4817538,5.61194 l -1.2417264,2.35067 z M 147.14083,61.428382 c -0.84968,-2.051296 -3.71474,-4.578977 -6.40892,-5.654215 -1.26788,-0.506007 -0.65938,-0.639576 3.06196,-0.672111 l 4.6443,-0.0406 v 4.163854 c 0,2.29012 -0.10917,4.163854 -0.24258,4.163854 -0.13342,0 -0.60806,-0.88235 -1.05476,-1.960777 z"
           id="path1"
           clip-path="url(#clipPath1)"
           transform="matrix(1.1016182,0,0,1.1016182,18.818018,17.182496)" /><path
           style="fill:#ffffff"
           d="m 164.89399,93.626764 v -41.40729 h 41.40729 41.4073 v 41.40729 41.407286 h -41.4073 -41.40729 z m 54.42656,19.326276 c 1.23916,-3.27537 3.51969,-5.06029 7.80808,-6.11121 l 1.88115,-0.461 -1.96154,-0.4949 c -5.33411,-1.3458 -7.16516,-3.27765 -8.73555,-9.216456 l -0.31483,-1.19062 -0.46106,1.71979 c -1.45427,5.424626 -3.3017,7.307786 -8.47704,8.640986 l -1.77777,0.45796 2.85736,0.95575 c 3.21473,1.07529 4.46552,1.8967 5.59173,3.67217 0.77276,1.21827 2.05482,4.82758 2.10713,5.9321 0.0151,0.31991 0.19821,-0.0137 0.40681,-0.74126 0.20859,-0.72761 0.69258,-2.1511 1.07553,-3.16331 z m -17.09068,-11.02316 c 1.60863,-6.018116 3.7657,-9.303806 7.32724,-11.161016 1.85529,-0.96747 6.14529,-2.43422 7.97579,-2.72693 1.32884,-0.21249 1.37413,-0.51721 0.11208,-0.75397 -1.9669,-0.369 -5.5319,-1.51568 -7.41011,-2.38347 -4.38169,-2.02446 -6.44858,-5.30475 -8.59135,-13.63502 l -0.30626,-1.19062 -0.73371,2.77812 c -2.45082,9.27979 -4.96337,11.75972 -14.33191,14.14584 -1.35297,0.34459 -2.28135,0.68935 -2.06306,0.76613 0.21828,0.0768 1.56187,0.44221 2.98575,0.81207 5.10676,1.3265 8.43712,3.21415 10.20559,5.78453 1.12075,1.62895 2.51149,5.15084 3.23193,8.184476 0.33611,1.41529 0.65205,2.53232 0.70209,2.48229 0.05,-0.05 0.4532,-1.44613 0.89593,-3.10243 z m -67.54858,14.0883 c -1.41363,-5.64011 -3.06959,-7.44849 -8.02756,-8.76646 -1.15978,-0.30831 -2.28729,-0.62583 -2.50557,-0.70562 -0.21828,-0.0798 0.67469,-0.43403 1.98437,-0.78721 5.43106,-1.46459 6.96098,-3.00701 8.45141,-8.520456 0.34029,-1.25881 0.67518,-2.11016 0.74421,-1.89188 0.069,0.21829 0.38784,1.34938 0.70848,2.51355 0.32064,1.16416 0.83885,2.632176 1.15157,3.262246 1.12126,2.25911 3.56,3.84279 7.26125,4.71536 1.05804,0.24943 1.92371,0.52699 1.92371,0.61679 0,0.0898 -0.74414,0.31665 -1.65365,0.50413 -2.47427,0.51003 -5.18719,1.86701 -6.37571,3.18908 -1.18016,1.31279 -1.60355,2.22423 -2.45149,5.27747 -0.33898,1.22058 -0.64999,2.2529 -0.69113,2.29404 -0.0411,0.0411 -0.27509,-0.72433 -0.51989,-1.70104 z m -16.44795,-11.099 c -0.33019,-2.06488 -1.78157,-6.599166 -2.72424,-8.510836 -2.06444,-4.18655 -5.53717,-6.37047 -12.85834,-8.0863 -1.12778,-0.26432 -2.05052,-0.55404 -2.05052,-0.64384 0,-0.0898 0.74414,-0.31605 1.65365,-0.50277 3.0172,-0.61944 7.23277,-2.12987 8.82249,-3.16107 3.22297,-2.09064 5.01247,-5.09897 6.55826,-11.0251 0.49346,-1.89177 0.95496,-3.26099 1.02555,-3.04271 0.0706,0.21829 0.50576,1.82563 0.96702,3.57188 1.60392,6.07209 3.60863,9.08536 7.35377,11.05338 1.85028,0.97229 7.74129,2.83724 8.9623,2.83724 1.16134,0 0.66697,0.43905 -0.88106,0.78246 -7.80325,1.73107 -11.46969,3.98114 -13.55475,8.31848 -1.01097,2.10301 -2.18546,5.821176 -2.54088,8.043826 -0.23455,1.46683 -0.53331,1.61569 -0.73325,0.36536 z"
           id="path2"
           clip-path="url(#clipPath3)"
           transform="matrix(1.0477706,0,0,1.0477706,33.192624,-0.92478843)" /></g></g></g></svg>
